<mxfile host="app.diagrams.net" modified="2024-03-26T20:18:01.288Z" agent="Mozilla/5.0 (Windows NT 10.0; Win64; x64; rv:123.0) Gecko/20100101 Firefox/123.0" etag="SrJYEYE77JDhnFKZ0UJb" version="24.1.0" type="device">
  <diagram name="Page-1" id="L0Kk7n4HrUE3NebkYSWz">
    <mxGraphModel dx="955" dy="489" grid="1" gridSize="10" guides="1" tooltips="1" connect="1" arrows="1" fold="1" page="1" pageScale="1" pageWidth="850" pageHeight="1100" math="0" shadow="0">
      <root>
        <mxCell id="0" />
        <mxCell id="1" parent="0" />
        <mxCell id="LUQuOdgq-feki1862Wh2-19" value="[1/1]" style="rounded=0;orthogonalLoop=1;jettySize=auto;html=1;" edge="1" parent="1" source="LUQuOdgq-feki1862Wh2-1" target="LUQuOdgq-feki1862Wh2-4">
          <mxGeometry relative="1" as="geometry" />
        </mxCell>
        <mxCell id="LUQuOdgq-feki1862Wh2-20" value="[1/1]" style="rounded=0;orthogonalLoop=1;jettySize=auto;html=1;" edge="1" parent="1" source="LUQuOdgq-feki1862Wh2-1" target="LUQuOdgq-feki1862Wh2-5">
          <mxGeometry relative="1" as="geometry" />
        </mxCell>
        <mxCell id="LUQuOdgq-feki1862Wh2-21" value="[1/1]" style="rounded=0;orthogonalLoop=1;jettySize=auto;html=1;" edge="1" parent="1" source="LUQuOdgq-feki1862Wh2-1" target="LUQuOdgq-feki1862Wh2-2">
          <mxGeometry relative="1" as="geometry" />
        </mxCell>
        <mxCell id="LUQuOdgq-feki1862Wh2-22" value="[1/1]" style="rounded=0;orthogonalLoop=1;jettySize=auto;html=1;" edge="1" parent="1" source="LUQuOdgq-feki1862Wh2-1" target="LUQuOdgq-feki1862Wh2-3">
          <mxGeometry relative="1" as="geometry" />
        </mxCell>
        <mxCell id="LUQuOdgq-feki1862Wh2-23" value="[1/1]" style="rounded=0;orthogonalLoop=1;jettySize=auto;html=1;" edge="1" parent="1" source="LUQuOdgq-feki1862Wh2-1" target="LUQuOdgq-feki1862Wh2-7">
          <mxGeometry relative="1" as="geometry" />
        </mxCell>
        <mxCell id="LUQuOdgq-feki1862Wh2-24" value="[1/1]" style="rounded=0;orthogonalLoop=1;jettySize=auto;html=1;" edge="1" parent="1" source="LUQuOdgq-feki1862Wh2-1" target="LUQuOdgq-feki1862Wh2-8">
          <mxGeometry relative="1" as="geometry" />
        </mxCell>
        <mxCell id="LUQuOdgq-feki1862Wh2-1" value="s" style="ellipse;whiteSpace=wrap;html=1;aspect=fixed;" vertex="1" parent="1">
          <mxGeometry x="160" y="240" width="40" height="40" as="geometry" />
        </mxCell>
        <mxCell id="LUQuOdgq-feki1862Wh2-37" value="[1/1]" style="rounded=0;orthogonalLoop=1;jettySize=auto;html=1;fillColor=#ffe6cc;strokeColor=#d79b00;" edge="1" parent="1" source="LUQuOdgq-feki1862Wh2-2" target="LUQuOdgq-feki1862Wh2-13">
          <mxGeometry x="-0.8708" relative="1" as="geometry">
            <mxPoint as="offset" />
          </mxGeometry>
        </mxCell>
        <mxCell id="LUQuOdgq-feki1862Wh2-38" value="[0/1]" style="rounded=0;orthogonalLoop=1;jettySize=auto;html=1;fillColor=#ffe6cc;strokeColor=#d79b00;" edge="1" parent="1" source="LUQuOdgq-feki1862Wh2-2" target="LUQuOdgq-feki1862Wh2-12">
          <mxGeometry x="-0.8018" y="3" relative="1" as="geometry">
            <mxPoint as="offset" />
          </mxGeometry>
        </mxCell>
        <mxCell id="LUQuOdgq-feki1862Wh2-39" value="[0/1]" style="rounded=0;orthogonalLoop=1;jettySize=auto;html=1;fillColor=#ffe6cc;strokeColor=#d79b00;" edge="1" parent="1" source="LUQuOdgq-feki1862Wh2-2" target="LUQuOdgq-feki1862Wh2-16">
          <mxGeometry x="-0.8974" y="-7" relative="1" as="geometry">
            <mxPoint as="offset" />
          </mxGeometry>
        </mxCell>
        <mxCell id="LUQuOdgq-feki1862Wh2-2" value="3" style="ellipse;whiteSpace=wrap;html=1;aspect=fixed;fillColor=#ffe6cc;strokeColor=#d79b00;" vertex="1" parent="1">
          <mxGeometry x="280" y="200" width="40" height="40" as="geometry" />
        </mxCell>
        <mxCell id="LUQuOdgq-feki1862Wh2-40" value="[0/1]" style="rounded=0;orthogonalLoop=1;jettySize=auto;html=1;fillColor=#f8cecc;strokeColor=#b85450;" edge="1" parent="1" source="LUQuOdgq-feki1862Wh2-3" target="LUQuOdgq-feki1862Wh2-13">
          <mxGeometry x="-0.8502" relative="1" as="geometry">
            <mxPoint as="offset" />
          </mxGeometry>
        </mxCell>
        <mxCell id="LUQuOdgq-feki1862Wh2-41" value="[0/1]" style="rounded=0;orthogonalLoop=1;jettySize=auto;html=1;fillColor=#f8cecc;strokeColor=#b85450;" edge="1" parent="1" source="LUQuOdgq-feki1862Wh2-3" target="LUQuOdgq-feki1862Wh2-11">
          <mxGeometry x="-0.8018" y="-3" relative="1" as="geometry">
            <mxPoint as="offset" />
          </mxGeometry>
        </mxCell>
        <mxCell id="LUQuOdgq-feki1862Wh2-42" value="[1/1]" style="rounded=0;orthogonalLoop=1;jettySize=auto;html=1;fillColor=#f8cecc;strokeColor=#b85450;" edge="1" parent="1" source="LUQuOdgq-feki1862Wh2-3" target="LUQuOdgq-feki1862Wh2-16">
          <mxGeometry x="-0.8708" relative="1" as="geometry">
            <mxPoint as="offset" />
          </mxGeometry>
        </mxCell>
        <mxCell id="LUQuOdgq-feki1862Wh2-3" value="4" style="ellipse;whiteSpace=wrap;html=1;aspect=fixed;fillColor=#f8cecc;strokeColor=#b85450;" vertex="1" parent="1">
          <mxGeometry x="280" y="280" width="40" height="40" as="geometry" />
        </mxCell>
        <mxCell id="LUQuOdgq-feki1862Wh2-31" value="[1/1]" style="rounded=0;orthogonalLoop=1;jettySize=auto;html=1;fillColor=#dae8fc;strokeColor=#6c8ebf;" edge="1" parent="1" source="LUQuOdgq-feki1862Wh2-4" target="LUQuOdgq-feki1862Wh2-14">
          <mxGeometry x="-0.7127" y="6" relative="1" as="geometry">
            <mxPoint as="offset" />
          </mxGeometry>
        </mxCell>
        <mxCell id="LUQuOdgq-feki1862Wh2-32" value="[0/1]" style="rounded=0;orthogonalLoop=1;jettySize=auto;html=1;fillColor=#dae8fc;strokeColor=#6c8ebf;" edge="1" parent="1" source="LUQuOdgq-feki1862Wh2-4" target="LUQuOdgq-feki1862Wh2-12">
          <mxGeometry x="-0.803" y="7" relative="1" as="geometry">
            <mxPoint as="offset" />
          </mxGeometry>
        </mxCell>
        <mxCell id="LUQuOdgq-feki1862Wh2-33" value="[0/1]" style="rounded=0;orthogonalLoop=1;jettySize=auto;html=1;fillColor=#dae8fc;strokeColor=#6c8ebf;" edge="1" parent="1" source="LUQuOdgq-feki1862Wh2-4" target="LUQuOdgq-feki1862Wh2-15">
          <mxGeometry x="-0.7881" y="-4" relative="1" as="geometry">
            <mxPoint x="-1" as="offset" />
          </mxGeometry>
        </mxCell>
        <mxCell id="LUQuOdgq-feki1862Wh2-4" value="1" style="ellipse;whiteSpace=wrap;html=1;aspect=fixed;fillColor=#dae8fc;strokeColor=#6c8ebf;" vertex="1" parent="1">
          <mxGeometry x="280" y="40" width="40" height="40" as="geometry" />
        </mxCell>
        <mxCell id="LUQuOdgq-feki1862Wh2-34" value="[0/1]" style="rounded=0;orthogonalLoop=1;jettySize=auto;html=1;fillColor=#d5e8d4;strokeColor=#82b366;" edge="1" parent="1" source="LUQuOdgq-feki1862Wh2-5" target="LUQuOdgq-feki1862Wh2-14">
          <mxGeometry x="-0.8" relative="1" as="geometry">
            <mxPoint as="offset" />
          </mxGeometry>
        </mxCell>
        <mxCell id="LUQuOdgq-feki1862Wh2-35" value="[1/1]" style="rounded=0;orthogonalLoop=1;jettySize=auto;html=1;fillColor=#d5e8d4;strokeColor=#82b366;" edge="1" parent="1" source="LUQuOdgq-feki1862Wh2-5" target="LUQuOdgq-feki1862Wh2-11">
          <mxGeometry x="-0.5939" relative="1" as="geometry">
            <mxPoint as="offset" />
          </mxGeometry>
        </mxCell>
        <mxCell id="LUQuOdgq-feki1862Wh2-36" value="[0/1]" style="rounded=0;orthogonalLoop=1;jettySize=auto;html=1;fillColor=#d5e8d4;strokeColor=#82b366;" edge="1" parent="1" source="LUQuOdgq-feki1862Wh2-5" target="LUQuOdgq-feki1862Wh2-15">
          <mxGeometry x="-0.8502" relative="1" as="geometry">
            <mxPoint as="offset" />
          </mxGeometry>
        </mxCell>
        <mxCell id="LUQuOdgq-feki1862Wh2-5" value="2" style="ellipse;whiteSpace=wrap;html=1;aspect=fixed;fillColor=#d5e8d4;strokeColor=#82b366;" vertex="1" parent="1">
          <mxGeometry x="280" y="120" width="40" height="40" as="geometry" />
        </mxCell>
        <mxCell id="LUQuOdgq-feki1862Wh2-43" value="[0/1]" style="rounded=0;orthogonalLoop=1;jettySize=auto;html=1;fillColor=#e1d5e7;strokeColor=#9673a6;" edge="1" parent="1" source="LUQuOdgq-feki1862Wh2-7" target="LUQuOdgq-feki1862Wh2-14">
          <mxGeometry x="-0.8974" y="-7" relative="1" as="geometry">
            <mxPoint as="offset" />
          </mxGeometry>
        </mxCell>
        <mxCell id="LUQuOdgq-feki1862Wh2-44" value="[1/1]" style="rounded=0;orthogonalLoop=1;jettySize=auto;html=1;fillColor=#e1d5e7;strokeColor=#9673a6;" edge="1" parent="1" source="LUQuOdgq-feki1862Wh2-7" target="LUQuOdgq-feki1862Wh2-15">
          <mxGeometry x="-0.8" relative="1" as="geometry">
            <mxPoint as="offset" />
          </mxGeometry>
        </mxCell>
        <mxCell id="LUQuOdgq-feki1862Wh2-45" value="[0/1]" style="rounded=0;orthogonalLoop=1;jettySize=auto;html=1;fillColor=#e1d5e7;strokeColor=#9673a6;" edge="1" parent="1" source="LUQuOdgq-feki1862Wh2-7" target="LUQuOdgq-feki1862Wh2-16">
          <mxGeometry x="-0.7424" y="-16" relative="1" as="geometry">
            <mxPoint as="offset" />
          </mxGeometry>
        </mxCell>
        <mxCell id="LUQuOdgq-feki1862Wh2-7" value="5" style="ellipse;whiteSpace=wrap;html=1;aspect=fixed;fillColor=#e1d5e7;strokeColor=#9673a6;" vertex="1" parent="1">
          <mxGeometry x="280" y="360" width="40" height="40" as="geometry" />
        </mxCell>
        <mxCell id="LUQuOdgq-feki1862Wh2-46" value="[0/1]" style="rounded=0;orthogonalLoop=1;jettySize=auto;html=1;fillColor=#fff2cc;strokeColor=#d6b656;" edge="1" parent="1" source="LUQuOdgq-feki1862Wh2-8" target="LUQuOdgq-feki1862Wh2-13">
          <mxGeometry x="-0.949" y="7" relative="1" as="geometry">
            <mxPoint as="offset" />
          </mxGeometry>
        </mxCell>
        <mxCell id="LUQuOdgq-feki1862Wh2-47" value="[0/1]" style="rounded=0;orthogonalLoop=1;jettySize=auto;html=1;fillColor=#fff2cc;strokeColor=#d6b656;" edge="1" parent="1" source="LUQuOdgq-feki1862Wh2-8" target="LUQuOdgq-feki1862Wh2-11">
          <mxGeometry x="-0.803" y="-7" relative="1" as="geometry">
            <mxPoint as="offset" />
          </mxGeometry>
        </mxCell>
        <mxCell id="LUQuOdgq-feki1862Wh2-48" value="[1/1]" style="rounded=0;orthogonalLoop=1;jettySize=auto;html=1;fillColor=#fff2cc;strokeColor=#d6b656;" edge="1" parent="1" source="LUQuOdgq-feki1862Wh2-8" target="LUQuOdgq-feki1862Wh2-12">
          <mxGeometry x="-0.8931" y="-22" relative="1" as="geometry">
            <mxPoint as="offset" />
          </mxGeometry>
        </mxCell>
        <mxCell id="LUQuOdgq-feki1862Wh2-8" value="6" style="ellipse;whiteSpace=wrap;html=1;aspect=fixed;fillColor=#fff2cc;strokeColor=#d6b656;" vertex="1" parent="1">
          <mxGeometry x="280" y="440" width="40" height="40" as="geometry" />
        </mxCell>
        <mxCell id="LUQuOdgq-feki1862Wh2-27" value="[1/1]" style="rounded=0;orthogonalLoop=1;jettySize=auto;html=1;" edge="1" parent="1" source="LUQuOdgq-feki1862Wh2-11" target="LUQuOdgq-feki1862Wh2-17">
          <mxGeometry relative="1" as="geometry" />
        </mxCell>
        <mxCell id="LUQuOdgq-feki1862Wh2-11" value="C" style="ellipse;whiteSpace=wrap;html=1;aspect=fixed;" vertex="1" parent="1">
          <mxGeometry x="520" y="200" width="40" height="40" as="geometry" />
        </mxCell>
        <mxCell id="LUQuOdgq-feki1862Wh2-28" value="[1/1]" style="rounded=0;orthogonalLoop=1;jettySize=auto;html=1;" edge="1" parent="1" source="LUQuOdgq-feki1862Wh2-12" target="LUQuOdgq-feki1862Wh2-17">
          <mxGeometry relative="1" as="geometry" />
        </mxCell>
        <mxCell id="LUQuOdgq-feki1862Wh2-12" value="D" style="ellipse;whiteSpace=wrap;html=1;aspect=fixed;" vertex="1" parent="1">
          <mxGeometry x="520" y="280" width="40" height="40" as="geometry" />
        </mxCell>
        <mxCell id="LUQuOdgq-feki1862Wh2-25" value="[1/1]" style="rounded=0;orthogonalLoop=1;jettySize=auto;html=1;" edge="1" parent="1" source="LUQuOdgq-feki1862Wh2-13" target="LUQuOdgq-feki1862Wh2-17">
          <mxGeometry relative="1" as="geometry" />
        </mxCell>
        <mxCell id="LUQuOdgq-feki1862Wh2-13" value="A" style="ellipse;whiteSpace=wrap;html=1;aspect=fixed;" vertex="1" parent="1">
          <mxGeometry x="520" y="40" width="40" height="40" as="geometry" />
        </mxCell>
        <mxCell id="LUQuOdgq-feki1862Wh2-26" value="[1/1]" style="rounded=0;orthogonalLoop=1;jettySize=auto;html=1;" edge="1" parent="1" source="LUQuOdgq-feki1862Wh2-14" target="LUQuOdgq-feki1862Wh2-17">
          <mxGeometry relative="1" as="geometry" />
        </mxCell>
        <mxCell id="LUQuOdgq-feki1862Wh2-14" value="B" style="ellipse;whiteSpace=wrap;html=1;aspect=fixed;" vertex="1" parent="1">
          <mxGeometry x="520" y="120" width="40" height="40" as="geometry" />
        </mxCell>
        <mxCell id="LUQuOdgq-feki1862Wh2-29" value="[1/1]" style="rounded=0;orthogonalLoop=1;jettySize=auto;html=1;" edge="1" parent="1" source="LUQuOdgq-feki1862Wh2-15" target="LUQuOdgq-feki1862Wh2-17">
          <mxGeometry relative="1" as="geometry" />
        </mxCell>
        <mxCell id="LUQuOdgq-feki1862Wh2-15" value="E" style="ellipse;whiteSpace=wrap;html=1;aspect=fixed;" vertex="1" parent="1">
          <mxGeometry x="520" y="360" width="40" height="40" as="geometry" />
        </mxCell>
        <mxCell id="LUQuOdgq-feki1862Wh2-30" value="[1/1]" style="rounded=0;orthogonalLoop=1;jettySize=auto;html=1;" edge="1" parent="1" source="LUQuOdgq-feki1862Wh2-16" target="LUQuOdgq-feki1862Wh2-17">
          <mxGeometry relative="1" as="geometry" />
        </mxCell>
        <mxCell id="LUQuOdgq-feki1862Wh2-16" value="F" style="ellipse;whiteSpace=wrap;html=1;aspect=fixed;" vertex="1" parent="1">
          <mxGeometry x="520" y="440" width="40" height="40" as="geometry" />
        </mxCell>
        <mxCell id="LUQuOdgq-feki1862Wh2-17" value="t" style="ellipse;whiteSpace=wrap;html=1;aspect=fixed;" vertex="1" parent="1">
          <mxGeometry x="640" y="240" width="40" height="40" as="geometry" />
        </mxCell>
      </root>
    </mxGraphModel>
  </diagram>
</mxfile>
